# xmcd
#
# Track frame offsets: 
#        150
#        38362
#        54064
#        72032
#        84432
#        96945
#        116545
#        130477
#        142070
#        159077
#
# Disc length: 2325 seconds
#
# Revision: 2
# Processed by: cddbd v1.5.2PL0 Copyright (c) Steve Scherf et al.
# Submitted via: ExactAudioCopyFreeDBPlugin 1.0
#
DISCID=7609130a
DTITLE=Various Artist - Borders Presents^ A Brief History of the Blues
DYEAR=2000
DGENRE=Blues
TTITLE0=Son House - Preaching the Blues
TTITLE1=Mississippi John Hurt - Salty Dog
TTITLE2=Lightnin' Hopkins - I've Had My Fun
TTITLE3=John Lee Hooker - Hobo Blues
TTITLE4=Jimmy Reed - Shame Shame Shame
TTITLE5=Otis Spann - Worried Life Blues
TTITLE6=Nina Simone - Gin House Blues
TTITLE7=Ray Charles - C.C. Rider
TTITLE8=Etta James - I'd Rather Go Blind
TTITLE9=B.B. King - How Blue Can You Get
EXTD=Blues compilation cd put together by and available at Borders Boo
EXTD=kstores.
EXTT0=
EXTT1=
EXTT2=
EXTT3=
EXTT4=
EXTT5=
EXTT6=
EXTT7=
EXTT8=
EXTT9=
PLAYORDER=
